# xmcd CD database file
#
# Track frame offsets:
#	150
#	15525
#	29780
#	48965
#	69932
#	90029
#	102112
#	119041
#	135892
#	147774
#	168817
#	191760
#
# Disc length: 2975 seconds
#
# Revision: 2
# Processed by: cddbd v1.5.1PL0 Copyright (c) Steve Scherf et al.
# Submitted via: CDex 1.51
#
DISCID=930b9d0c
DTITLE=Jazzpel - Let them talk
DYEAR=1900
DGENRE=Jazz
TTITLE0=I'll never let you say no
TTITLE1=You'd better love
TTITLE2=Go straight little John
TTITLE3=With all my heart
TTITLE4=Reborn
TTITLE5=Buzz me, please
TTITLE6=Boune's nouce
TTITLE7=Let them talk
TTITLE8=Glad again
TTITLE9=Everything changes
TTITLE10=The nearness of an angel
TTITLE11=Lasts will be the first
EXTD=
EXTT0=
EXTT1=
EXTT2=
EXTT3=
EXTT4=
EXTT5=
EXTT6=
EXTT7=
EXTT8=
EXTT9=
EXTT10=
EXTT11=
PLAYORDER=
